<?xml version="1.0" encoding="utf-8" ?><svg xmlns="http://www.w3.org/2000/svg" xmlns:xlink="http://www.w3.org/1999/xlink" width="1024" height="1024" viewBox="0 0 1024 1024"><path fill="white" d="M0 0L1024 0L1024 1024L0 1024L0 0Z"/><path fill="#070606" d="M736.806 165.253L915.94 165.208C906.354 188.157 894.978 212.225 884.725 235.057L830.094 356.797C821.508 356.404 810.491 356.649 801.765 356.612L746.135 356.387C734.199 356.323 722.264 356.191 710.329 355.991C701.086 355.87 691.639 355.633 682.412 355.998C663.969 356.728 646.912 373.686 653.074 392.912C656.786 404.496 667.372 408.203 677.245 412.867L701.648 424.427L767.943 456.277C778.582 461.378 789.977 466.219 800.354 471.618C840.489 492.5 875.906 525.229 895.772 566.287C950.398 679.186 888.616 811.998 770.37 850.115C735.527 860.81 715.212 859.553 679.254 859.559L618.134 859.657C623.39 846.539 630.698 831.318 636.475 818.246L671.914 738.06C681.057 716.997 690.321 695.986 699.705 675.028C706.131 660.348 712.519 645.267 719.48 630.856C684.739 613.359 648.342 596.295 613.242 579.275L574.675 560.228C543.102 544.81 518.489 533.39 493.024 508.11C456.553 472.205 436.17 423.066 436.518 371.889C436.277 317.352 457.718 264.955 496.121 226.233C529.619 192.182 573.991 170.95 621.522 166.227C636.031 164.826 655.798 165.339 670.704 165.32L736.806 165.253Z"/><path fill="#070606" d="M141.656 165.25L319.333 165.224C351.52 165.209 385.417 164.633 417.433 165.321C417.504 187.103 417.426 208.885 417.2 230.665L350.432 230.773C349.723 261.371 350.155 293.175 350.258 323.789L350.101 448.197L350.081 490.571C350.111 511.278 350.803 509.742 342.669 528.83L333.081 551.504L288.463 655.338C284.539 664.653 280.552 673.941 276.502 683.202C273.247 690.652 270.085 697.818 267.302 705.481C254.235 741.464 284.205 780.423 323.12 773.712C327.849 772.885 332.443 771.417 336.776 769.35C344.303 765.78 355.705 758.882 363.204 754.669L402.93 732.672C444.689 709.275 488.172 685.01 530.266 662.364C537.632 658.332 544.946 654.206 552.206 649.985C554.858 648.47 565.85 642.022 568.115 641.906C584.154 641.088 605.491 641.484 621.25 641.495L656.295 641.584L558.135 859.516L408.82 859.482L358.567 859.542C336.568 859.571 319.133 860.392 297.503 855.235C266.141 847.919 237.398 832.113 214.422 809.548C190.243 785.511 176.426 758.691 169.594 725.459C164.601 701.177 165.681 673.898 165.642 648.985L165.595 558.713L165.518 230.925L107.823 230.6L107.718 165.501L141.656 165.25Z"/></svg>