<svg width="1200" height="675" viewBox="0 0 1200 675" fill="none" xmlns="http://www.w3.org/2000/svg">
  <defs>
    <linearGradient id="bg" x1="0" y1="0" x2="1200" y2="675" gradientUnits="userSpaceOnUse">
      <stop offset="0" stop-color="#0B302A"/>
      <stop offset="0.55" stop-color="#126B5F"/>
      <stop offset="1" stop-color="#31A08E"/>
    </linearGradient>
    <linearGradient id="card" x1="170" y1="100" x2="1030" y2="575" gradientUnits="userSpaceOnUse">
      <stop offset="0" stop-color="#0F1B2B" stop-opacity="0.95"/>
      <stop offset="1" stop-color="#112838" stop-opacity="0.95"/>
    </linearGradient>
  </defs>

  <rect width="1200" height="675" fill="url(#bg)"/>
  <circle cx="1060" cy="115" r="190" fill="#FFD09B" fill-opacity="0.2"/>
  <circle cx="95" cy="620" r="170" fill="#8CE7D7" fill-opacity="0.2"/>

  <rect x="130" y="88" width="940" height="500" rx="24" fill="url(#card)" stroke="#52D0B8" stroke-opacity="0.35"/>
  <rect x="170" y="145" width="420" height="360" rx="16" fill="#0A1522" stroke="#2BC5AA" stroke-opacity="0.35"/>
  <rect x="620" y="145" width="410" height="150" rx="16" fill="#0A1522" stroke="#2BC5AA" stroke-opacity="0.35"/>
  <rect x="620" y="325" width="410" height="180" rx="16" fill="#0A1522" stroke="#2BC5AA" stroke-opacity="0.35"/>

  <text x="185" y="182" fill="#8EF0DC" font-size="22" font-family="Consolas, monospace">{</text>
  <text x="210" y="214" fill="#F9A1A9" font-size="20" font-family="Consolas, monospace">"project"</text>
  <text x="320" y="214" fill="#B8D8FF" font-size="20" font-family="Consolas, monospace">: "Mindlytic"</text>
  <text x="210" y="246" fill="#F9A1A9" font-size="20" font-family="Consolas, monospace">"features"</text>
  <text x="332" y="246" fill="#B8D8FF" font-size="20" font-family="Consolas, monospace">: ["diff", "format"]</text>
  <text x="210" y="278" fill="#F9A1A9" font-size="20" font-family="Consolas, monospace">"status"</text>
  <text x="308" y="278" fill="#B8D8FF" font-size="20" font-family="Consolas, monospace">: "premium"</text>
  <text x="185" y="312" fill="#8EF0DC" font-size="22" font-family="Consolas, monospace">}</text>

  <text x="650" y="190" fill="#FFD49A" font-size="24" font-family="Verdana, sans-serif" font-weight="700">JSON FORGE STUDIO</text>
  <text x="650" y="228" fill="#A2E8DA" font-size="17" font-family="Verdana, sans-serif">Validate  Format  Minify  Compare  Export</text>

  <rect x="650" y="354" width="122" height="48" rx="12" fill="#1B8F7D"/>
  <text x="663" y="386" fill="#ECFFF9" font-size="17" font-family="Verdana, sans-serif" font-weight="700">VALIDATE</text>

  <rect x="786" y="354" width="112" height="48" rx="12" fill="#2A5BB8"/>
  <text x="803" y="386" fill="#ECF3FF" font-size="17" font-family="Verdana, sans-serif" font-weight="700">FORMAT</text>

  <rect x="912" y="354" width="96" height="48" rx="12" fill="#A64545"/>
  <text x="937" y="386" fill="#FFF0F0" font-size="17" font-family="Verdana, sans-serif" font-weight="700">DIFF</text>
</svg>
