<svg width="1200" height="700" viewBox="0 0 1200 700" fill="none" xmlns="http://www.w3.org/2000/svg">
  <defs>
    <linearGradient id="scene" x1="64" y1="36" x2="1138" y2="666" gradientUnits="userSpaceOnUse">
      <stop stop-color="#102B25" />
      <stop offset="1" stop-color="#0A1A17" />
    </linearGradient>
    <linearGradient id="shell" x1="210" y1="124" x2="992" y2="592" gradientUnits="userSpaceOnUse">
      <stop stop-color="#133A33" />
      <stop offset="1" stop-color="#0F2C27" />
    </linearGradient>
    <linearGradient id="topbar" x1="245" y1="166" x2="952" y2="166" gradientUnits="userSpaceOnUse">
      <stop stop-color="#4CCFB7" />
      <stop offset="1" stop-color="#2CA792" />
    </linearGradient>
    <linearGradient id="subject" x1="400" y1="286" x2="456" y2="428" gradientUnits="userSpaceOnUse">
      <stop stop-color="#FFCAA0" />
      <stop offset="1" stop-color="#F2A66E" />
    </linearGradient>
    <linearGradient id="shirt" x1="370" y1="352" x2="478" y2="476" gradientUnits="userSpaceOnUse">
      <stop stop-color="#5BC9FF" />
      <stop offset="1" stop-color="#2F86C9" />
    </linearGradient>
    <pattern id="checker" width="28" height="28" patternUnits="userSpaceOnUse">
      <rect width="28" height="28" fill="#EEF2F5" />
      <rect width="14" height="14" fill="#DEE5EA" />
      <rect x="14" y="14" width="14" height="14" fill="#DEE5EA" />
    </pattern>
    <filter id="glow" x="0" y="0" width="1200" height="700" filterUnits="userSpaceOnUse" color-interpolation-filters="sRGB">
      <feGaussianBlur stdDeviation="16" />
    </filter>
  </defs>

  <rect width="1200" height="700" rx="28" fill="url(#scene)" />
  <ellipse cx="600" cy="612" rx="368" ry="58" fill="#3AC9A933" filter="url(#glow)" />

  <rect x="210" y="122" width="780" height="456" rx="26" fill="url(#shell)" stroke="#1F6155" stroke-width="2" />
  <rect x="245" y="154" width="710" height="58" rx="16" fill="url(#topbar)" fill-opacity="0.16" stroke="#65E0CB66" />

  <circle cx="276" cy="183" r="8" fill="#62DAC5" />
  <circle cx="303" cy="183" r="8" fill="#4FC8B1" />
  <circle cx="330" cy="183" r="8" fill="#3AB29D" />

  <text x="360" y="192" fill="#BDF8EC" font-size="30" font-family="Segoe UI, Arial, sans-serif" font-weight="700">
    Background Remover
  </text>

  <rect x="246" y="246" width="314" height="278" rx="18" fill="#12322C" stroke="#2A6E61" />
  <rect x="642" y="246" width="314" height="278" rx="18" fill="url(#checker)" stroke="#2A6E61" />

  <text x="273" y="278" fill="#8BDCCB" font-size="18" font-family="Segoe UI, Arial, sans-serif" font-weight="600">Original</text>
  <text x="669" y="278" fill="#1D6A5D" font-size="18" font-family="Segoe UI, Arial, sans-serif" font-weight="700">Removed BG</text>

  <rect x="278" y="298" width="250" height="194" rx="16" fill="#204D44" />
  <circle cx="403" cy="390" r="88" fill="#6AC6A133" />
  <circle cx="403" cy="349" r="34" fill="url(#subject)" />
  <path d="M350 472C350 426 373 394 404 394C435 394 458 426 458 472V492H350V472Z" fill="url(#shirt)" />
  <rect x="336" y="298" width="32" height="32" rx="8" fill="#FFFFFF22" />
  <path d="M344 314L352 322L360 306" stroke="#B6F1E4" stroke-width="3" stroke-linecap="round" stroke-linejoin="round" />

  <rect x="674" y="298" width="250" height="194" rx="16" fill="#FFFFFFAA" />
  <circle cx="799" cy="349" r="34" fill="url(#subject)" />
  <path d="M746 472C746 426 769 394 800 394C831 394 854 426 854 472V492H746V472Z" fill="url(#shirt)" />
  <circle cx="701" cy="313" r="10" fill="#52CBB6" />
  <path d="M694 313H708M701 306V320" stroke="#EFFFFA" stroke-width="2.5" stroke-linecap="round" />

  <circle cx="600" cy="384" r="48" fill="#15574B" stroke="#4CCFB7" stroke-width="2" />
  <path d="M577 390L595 372L607 384L626 365" stroke="#A5F5E4" stroke-width="5" stroke-linecap="round" stroke-linejoin="round" />
  <path d="M574 418H626" stroke="#66DCC6" stroke-width="4" stroke-linecap="round" />

  <rect x="252" y="540" width="212" height="24" rx="12" fill="#183F38" />
  <rect x="474" y="540" width="116" height="24" rx="12" fill="#20584D" />
  <rect x="602" y="540" width="154" height="24" rx="12" fill="#1D5146" />
  <rect x="766" y="540" width="180" height="24" rx="12" fill="#173E37" />
</svg>
